HIERARCHY
ROOT Hips
{
	OFFSET 0.000000 0.000000 0.000000
	CHANNELS 6 Xposition Yposition Zposition Xrotation Yrotation Zrotation
	JOINT Thigh.L
	{
		OFFSET 0.052806 0.030085 -0.091345
		CHANNELS 3 Xrotation Yrotation Zrotation
		JOINT Shin.L
		{
			OFFSET 0.053562 0.015378 -0.409636
			CHANNELS 3 Xrotation Yrotation Zrotation
			JOINT Foot.L
			{
				OFFSET -0.040339 0.032329 -0.427909
				CHANNELS 3 Xrotation Yrotation Zrotation
				JOINT Toe.L
				{
					OFFSET 0.044272 -0.118482 -0.063199
					CHANNELS 3 Xrotation Yrotation Zrotation
					End Site
					{
						OFFSET 0.000000 0.050000 0.000000
					}
				}
			}
		}
	}
	JOINT Thigh.R
	{
		OFFSET -0.058019 0.027353 -0.101862
		CHANNELS 3 Xrotation Yrotation Zrotation
		JOINT Shin.R
		{
			OFFSET -0.043043 0.020731 -0.393181
			CHANNELS 3 Xrotation Yrotation Zrotation
			JOINT Foot.R
			{
				OFFSET 0.014879 0.021057 -0.436800
				CHANNELS 3 Xrotation Yrotation Zrotation
				JOINT Toe.R
				{
					OFFSET -0.036794 -0.119269 -0.063259
					CHANNELS 3 Xrotation Yrotation Zrotation
					End Site
					{
						OFFSET 0.000000 0.050000 0.000000
					}
				}
			}
		}
	}
	JOINT Spine
	{
		OFFSET -0.001893 0.019039 0.108405
		CHANNELS 3 Xrotation Yrotation Zrotation
		JOINT Spine.2
		{
			OFFSET 0.006381 0.002852 0.134148
			CHANNELS 3 Xrotation Yrotation Zrotation
			JOINT Chest
			{
				OFFSET -0.010125 -0.022001 0.049633
				CHANNELS 3 Xrotation Yrotation Zrotation
				JOINT Neck
				{
					OFFSET -0.009249 0.027500 0.163604
					CHANNELS 3 Xrotation Yrotation Zrotation
					JOINT Head
					{
						OFFSET 0.021968 -0.023703 0.170624
						CHANNELS 3 Xrotation Yrotation Zrotation
						End Site
						{
							OFFSET 0.000000 0.050000 0.000000
						}
					}
				}
				JOINT Clavicle.L
				{
					OFFSET 0.042953 0.007681 0.083561
					CHANNELS 3 Xrotation Yrotation Zrotation
					JOINT UpperArm.L
					{
						OFFSET 0.105092 0.014270 0.059994
						CHANNELS 3 Xrotation Yrotation Zrotation
						JOINT ForeArm.L
						{
							OFFSET 0.259988 0.035042 -0.074218
							CHANNELS 3 Xrotation Yrotation Zrotation
							JOINT Hand.L
							{
								OFFSET 0.258517 0.006030 0.020521
								CHANNELS 3 Xrotation Yrotation Zrotation
								JOINT Thumb1.L
								{
									OFFSET 0.154591 0.002789 0.009493
									CHANNELS 3 Xrotation Yrotation Zrotation
									JOINT Thumb2.L
									{
										OFFSET 0.029898 0.000697 0.002373
										CHANNELS 3 Xrotation Yrotation Zrotation
										End Site
										{
											OFFSET 0.024915 0.000581 0.001978
										}
									}
								}
								JOINT Index1.L
								{
									OFFSET 0.137591 0.002789 0.009493
									CHANNELS 3 Xrotation Yrotation Zrotation
									JOINT Index2.L
									{
										OFFSET 0.029898 0.000697 0.002373
										CHANNELS 3 Xrotation Yrotation Zrotation
										JOINT Index3.L
										{
											OFFSET 0.021925 0.000511 0.001740
											CHANNELS 3 Xrotation Yrotation Zrotation
											End Site
											{
												OFFSET 0.017939 0.000418 0.001424
											}
										}
									}
								}
								JOINT Middle1.L
								{
									OFFSET 0.119591 0.002789 0.009493
									CHANNELS 3 Xrotation Yrotation Zrotation
									JOINT Middle2.L
									{
										OFFSET 0.030894 0.000721 0.002452
										CHANNELS 3 Xrotation Yrotation Zrotation
										JOINT Middle3.L
										{
											OFFSET 0.021925 0.000511 0.001740
											CHANNELS 3 Xrotation Yrotation Zrotation
											End Site
											{
												OFFSET 0.017939 0.000418 0.001424
											}
										}
									}
								}
								JOINT Ring1.L
								{
									OFFSET 0.101591 0.002789 0.009493
									CHANNELS 3 Xrotation Yrotation Zrotation
									JOINT Ring2.L
									{
										OFFSET 0.028901 0.000674 0.002294
										CHANNELS 3 Xrotation Yrotation Zrotation
										JOINT Ring3.L
										{
											OFFSET 0.019932 0.000465 0.001582
											CHANNELS 3 Xrotation Yrotation Zrotation
											End Site
											{
												OFFSET 0.016942 0.000395 0.001345
											}
										}
									}
								}
								JOINT Pinky1.L
								{
									OFFSET 0.085591 0.002789 0.009493
									CHANNELS 3 Xrotation Yrotation Zrotation
									JOINT Pinky2.L
									{
										OFFSET 0.023918 0.000558 0.001899
										CHANNELS 3 Xrotation Yrotation Zrotation
										JOINT Pinky3.L
										{
											OFFSET 0.016942 0.000395 0.001345
											CHANNELS 3 Xrotation Yrotation Zrotation
											End Site
											{
												OFFSET 0.013952 0.000325 0.001108
											}
										}
									}
								}
							}
						}
					}
				}
				JOINT Clavicle.R
				{
					OFFSET -0.040926 0.013766 0.082935
					CHANNELS 3 Xrotation Yrotation Zrotation
					JOINT UpperArm.R
					{
						OFFSET -0.090871 0.009161 0.055866
						CHANNELS 3 Xrotation Yrotation Zrotation
						JOINT ForeArm.R
						{
							OFFSET -0.275543 0.022707 -0.042009
							CHANNELS 3 Xrotation Yrotation Zrotation
							JOINT Hand.R
							{
								OFFSET -0.255376 0.018388 -0.003775
								CHANNELS 3 Xrotation Yrotation Zrotation
								JOINT Thumb1.R
								{
									OFFSET -0.154677 0.008617 -0.001769
									CHANNELS 3 Xrotation Yrotation Zrotation
									JOINT Thumb2.R
									{
										OFFSET -0.029919 0.002154 -0.000442
										CHANNELS 3 Xrotation Yrotation Zrotation
										End Site
										{
											OFFSET -0.024933 0.001795 -0.000369
										}
									}
								}
								JOINT Index1.R
								{
									OFFSET -0.137677 0.008617 -0.001769
									CHANNELS 3 Xrotation Yrotation Zrotation
									JOINT Index2.R
									{
										OFFSET -0.029919 0.002154 -0.000442
										CHANNELS 3 Xrotation Yrotation Zrotation
										JOINT Index3.R
										{
											OFFSET -0.021941 0.001580 -0.000324
											CHANNELS 3 Xrotation Yrotation Zrotation
											End Site
											{
												OFFSET -0.017952 0.001293 -0.000265
											}
										}
									}
								}
								JOINT Middle1.R
								{
									OFFSET -0.119677 0.008617 -0.001769
									CHANNELS 3 Xrotation Yrotation Zrotation
									JOINT Middle2.R
									{
										OFFSET -0.030917 0.002226 -0.000457
										CHANNELS 3 Xrotation Yrotation Zrotation
										JOINT Middle3.R
										{
											OFFSET -0.021941 0.001580 -0.000324
											CHANNELS 3 Xrotation Yrotation Zrotation
											End Site
											{
												OFFSET -0.017952 0.001293 -0.000265
											}
										}
									}
								}
								JOINT Ring1.R
								{
									OFFSET -0.101677 0.008617 -0.001769
									CHANNELS 3 Xrotation Yrotation Zrotation
									JOINT Ring2.R
									{
										OFFSET -0.028922 0.002082 -0.000427
										CHANNELS 3 Xrotation Yrotation Zrotation
										JOINT Ring3.R
										{
											OFFSET -0.019946 0.001436 -0.000295
											CHANNELS 3 Xrotation Yrotation Zrotation
											End Site
											{
												OFFSET -0.016954 0.001221 -0.000251
											}
										}
									}
								}
								JOINT Pinky1.R
								{
									OFFSET -0.085677 0.008617 -0.001769
									CHANNELS 3 Xrotation Yrotation Zrotation
									JOINT Pinky2.R
									{
										OFFSET -0.023935 0.001723 -0.000354
										CHANNELS 3 Xrotation Yrotation Zrotation
										JOINT Pinky3.R
										{
											OFFSET -0.016954 0.001221 -0.000251
											CHANNELS 3 Xrotation Yrotation Zrotation
											End Site
											{
												OFFSET -0.013962 0.001005 -0.000206
											}
										}
									}
								}
							}
						}
					}
				}
			}
		}
	}
}
MOTION
Frames: 7
Frame Time: 0.04166667
-0.003651 -0.057478 1.233923 -8.706924 1.025479 -0.491247 5.079720 0.356858 2.809279 7.085963 -1.889404 0.376313 -6.041520 1.532645 12.004610 2.951872 -3.355628 0.919436 1.705262 -0.931949 -1.931454 10.771092 2.578740 -4.534105 -1.947802 -2.466093 -8.350416 0.890848 -2.056531 -1.597481 8.223538 -0.560154 1.549791 4.616470 -1.913006 -2.359987 -4.085870 0.964126 0.661244 10.871666 3.506835 1.239218 8.454802 -1.136627 7.342379 5.361574 19.657940 2.629320 15.649277 51.621565 -18.070363 6.935339 0.298838 -24.810236 -6.855986 5.592687 -8.077526 0.000000 0.000000 0.000000 0.000000 0.000000 0.000000 0.000000 0.000000 0.000000 0.000000 0.000000 0.000000 0.000000 0.000000 0.000000 0.000000 0.000000 0.000000 0.000000 0.000000 0.000000 0.000000 0.000000 0.000000 0.000000 0.000000 0.000000 0.000000 0.000000 0.000000 0.000000 0.000000 0.000000 0.000000 0.000000 0.000000 0.000000 0.000000 0.000000 0.000000 0.000000 0.000000 3.231462 -10.605236 2.697741 29.374419 -56.508195 25.857311 3.815940 0.419266 29.548415 -7.774301 -6.466816 5.348396 0.000000 0.000000 0.000000 0.000000 0.000000 0.000000 0.000000 0.000000 0.000000 0.000000 0.000000 0.000000 0.000000 0.000000 0.000000 0.000000 0.000000 0.000000 0.000000 0.000000 0.000000 0.000000 0.000000 0.000000 0.000000 0.000000 0.000000 0.000000 0.000000 0.000000 0.000000 0.000000 0.000000 0.000000 0.000000 0.000000 0.000000 0.000000 0.000000 0.000000 0.000000 0.000000
-0.004002 -0.056944 1.234208 -8.703587 1.049424 -0.348061 5.203312 0.422872 2.785106 6.869638 -2.051575 0.481826 -5.929125 1.557043 11.932444 2.973579 -3.319067 0.914707 1.761580 -0.994828 -1.975896 10.717916 2.618086 -4.622720 -1.764196 -2.427515 -8.345886 0.905308 -2.047252 -1.589225 8.173948 -0.580960 1.550196 4.559586 -1.912253 -2.340885 -4.045379 0.955344 0.669664 10.937969 3.519790 1.281153 8.453385 -1.042469 7.333765 5.233730 19.685061 2.663580 15.885616 51.641395 -18.196657 7.051796 0.225820 -24.700824 -6.843633 5.647610 -8.138011 0.000000 0.000000 0.000000 0.000000 0.000000 0.000000 0.000000 0.000000 0.000000 0.000000 0.000000 0.000000 0.000000 0.000000 0.000000 0.000000 0.000000 0.000000 0.000000 0.000000 0.000000 0.000000 0.000000 0.000000 0.000000 0.000000 0.000000 0.000000 0.000000 0.000000 0.000000 0.000000 0.000000 0.000000 0.000000 0.000000 0.000000 0.000000 0.000000 0.000000 0.000000 0.000000 3.190049 -10.657023 2.695661 29.545165 -56.482311 25.937706 3.891585 0.501579 29.257665 -7.603891 -6.420421 5.380614 0.000000 0.000000 0.000000 0.000000 0.000000 0.000000 0.000000 0.000000 0.000000 0.000000 0.000000 0.000000 0.000000 0.000000 0.000000 0.000000 0.000000 0.000000 0.000000 0.000000 0.000000 0.000000 0.000000 0.000000 0.000000 0.000000 0.000000 0.000000 0.000000 0.000000 0.000000 0.000000 0.000000 0.000000 0.000000 0.000000 0.000000 0.000000 0.000000 0.000000 0.000000 0.000000
-0.004506 -0.056308 1.234267 -8.675259 1.087472 -0.298326 5.346326 0.451307 2.811998 6.583554 -2.131341 0.642202 -5.870776 1.565840 11.854903 2.972313 -3.251581 0.886056 1.804932 -1.039717 -2.007722 10.605356 2.630449 -4.707307 -1.642528 -2.448980 -8.319396 0.915571 -1.966121 -1.551220 8.125044 -0.632911 1.533062 4.567342 -1.917680 -2.319784 -4.070106 0.952149 0.667539 10.946642 3.487084 1.307008 8.444506 -0.932941 7.386881 5.149544 19.774027 2.655707 15.959695 51.642467 -18.147609 7.092767 0.207287 -24.575386 -6.881892 5.722587 -8.172612 0.000000 0.000000 0.000000 0.000000 0.000000 0.000000 0.000000 0.000000 0.000000 0.000000 0.000000 0.000000 0.000000 0.000000 0.000000 0.000000 0.000000 0.000000 0.000000 0.000000 0.000000 0.000000 0.000000 0.000000 0.000000 0.000000 0.000000 0.000000 0.000000 0.000000 0.000000 0.000000 0.000000 0.000000 0.000000 0.000000 0.000000 0.000000 0.000000 0.000000 0.000000 0.000000 3.231039 -10.808616 2.705333 29.519920 -56.305371 25.852961 3.937097 0.523016 29.169899 -7.425225 -6.380000 5.376251 0.000000 0.000000 0.000000 0.000000 0.000000 0.000000 0.000000 0.000000 0.000000 0.000000 0.000000 0.000000 0.000000 0.000000 0.000000 0.000000 0.000000 0.000000 0.000000 0.000000 0.000000 0.000000 0.000000 0.000000 0.000000 0.000000 0.000000 0.000000 0.000000 0.000000 0.000000 0.000000 0.000000 0.000000 0.000000 0.000000 0.000000 0.000000 0.000000 0.000000 0.000000 0.000000
-0.005246 -0.055960 1.234142 -8.664996 1.131549 -0.263296 5.420862 0.469724 2.860084 6.442663 -2.181999 0.785907 -5.912487 1.563806 11.810408 2.972331 -3.210176 0.861071 1.797456 -1.081942 -2.018583 10.602034 2.656698 -4.749795 -1.577289 -2.429256 -8.286553 0.928729 -1.882172 -1.511117 8.137060 -0.674608 1.521244 4.614322 -1.929622 -2.305594 -4.156087 0.944762 0.654493 10.968560 3.447071 1.231404 8.541442 -0.886494 7.369037 5.110701 19.869001 2.622391 15.975732 51.640367 -18.080056 7.107911 0.220372 -24.434338 -6.817718 5.836553 -8.171020 0.000000 0.000000 0.000000 0.000000 0.000000 0.000000 0.000000 0.000000 0.000000 0.000000 0.000000 0.000000 0.000000 0.000000 0.000000 0.000000 0.000000 0.000000 0.000000 0.000000 0.000000 0.000000 0.000000 0.000000 0.000000 0.000000 0.000000 0.000000 0.000000 0.000000 0.000000 0.000000 0.000000 0.000000 0.000000 0.000000 0.000000 0.000000 0.000000 0.000000 0.000000 0.000000 3.333227 -10.936116 2.744357 29.352533 -56.133326 25.682419 3.891419 0.496296 29.146081 -7.254096 -6.357636 5.345564 0.000000 0.000000 0.000000 0.000000 0.000000 0.000000 0.000000 0.000000 0.000000 0.000000 0.000000 0.000000 0.000000 0.000000 0.000000 0.000000 0.000000 0.000000 0.000000 0.000000 0.000000 0.000000 0.000000 0.000000 0.000000 0.000000 0.000000 0.000000 0.000000 0.000000 0.000000 0.000000 0.000000 0.000000 0.000000 0.000000 0.000000 0.000000 0.000000 0.000000 0.000000 0.000000
-0.006369 -0.056125 1.233948 -8.695745 1.189848 -0.328434 5.478946 0.499479 2.889626 6.408239 -2.209768 0.860469 -5.994271 1.502739 11.861603 2.971839 -3.174351 0.846180 1.818014 -1.113695 -2.016342 10.572655 2.705206 -4.718320 -1.530834 -2.463230 -8.246024 0.945036 -1.814194 -1.485500 8.146034 -0.720184 1.501754 4.639270 -1.922836 -2.306064 -4.201466 0.940324 0.645300 10.982541 3.454349 1.190130 8.667493 -0.826724 7.433663 5.108668 19.936718 2.539849 15.940847 51.696417 -18.004794 7.045701 0.252620 -24.185030 -6.742273 5.914754 -8.175190 0.000000 0.000000 0.000000 0.000000 0.000000 0.000000 0.000000 0.000000 0.000000 0.000000 0.000000 0.000000 0.000000 0.000000 0.000000 0.000000 0.000000 0.000000 0.000000 0.000000 0.000000 0.000000 0.000000 0.000000 0.000000 0.000000 0.000000 0.000000 0.000000 0.000000 0.000000 0.000000 0.000000 0.000000 0.000000 0.000000 0.000000 0.000000 0.000000 0.000000 0.000000 0.000000 3.396387 -11.016588 2.792250 29.149710 -55.969677 25.499017 3.922855 0.471121 29.183549 -7.125597 -6.333800 5.344682 0.000000 0.000000 0.000000 0.000000 0.000000 0.000000 0.000000 0.000000 0.000000 0.000000 0.000000 0.000000 0.000000 0.000000 0.000000 0.000000 0.000000 0.000000 0.000000 0.000000 0.000000 0.000000 0.000000 0.000000 0.000000 0.000000 0.000000 0.000000 0.000000 0.000000 0.000000 0.000000 0.000000 0.000000 0.000000 0.000000 0.000000 0.000000 0.000000 0.000000 0.000000 0.000000
-0.007202 -0.056212 1.233713 -8.734062 1.218304 -0.446904 5.542425 0.566145 2.890448 6.402681 -2.232888 0.863429 -6.047969 1.389879 11.964498 2.969372 -3.120110 0.859786 1.855535 -1.124735 -2.010898 10.532379 2.773925 -4.652378 -1.518928 -2.486407 -8.184082 0.943548 -1.797896 -1.492071 8.176722 -0.752455 1.489422 4.638385 -1.896623 -2.317157 -4.203994 0.944142 0.638788 11.048179 3.504863 1.222036 8.795356 -0.782411 7.560693 5.147055 19.982254 2.447343 15.868008 51.729145 -17.869964 6.996996 0.295672 -23.990980 -6.732932 5.983687 -8.170726 0.000000 0.000000 0.000000 0.000000 0.000000 0.000000 0.000000 0.000000 0.000000 0.000000 0.000000 0.000000 0.000000 0.000000 0.000000 0.000000 0.000000 0.000000 0.000000 0.000000 0.000000 0.000000 0.000000 0.000000 0.000000 0.000000 0.000000 0.000000 0.000000 0.000000 0.000000 0.000000 0.000000 0.000000 0.000000 0.000000 0.000000 0.000000 0.000000 0.000000 0.000000 0.000000 3.437921 -11.040982 2.854993 28.955828 -55.888366 25.309877 3.999073 0.461281 29.285393 -7.076367 -6.401737 5.354174 0.000000 0.000000 0.000000 0.000000 0.000000 0.000000 0.000000 0.000000 0.000000 0.000000 0.000000 0.000000 0.000000 0.000000 0.000000 0.000000 0.000000 0.000000 0.000000 0.000000 0.000000 0.000000 0.000000 0.000000 0.000000 0.000000 0.000000 0.000000 0.000000 0.000000 0.000000 0.000000 0.000000 0.000000 0.000000 0.000000 0.000000 0.000000 0.000000 0.000000 0.000000 0.000000
-0.008068 -0.055830 1.233426 -8.719554 1.267261 -0.570566 5.585760 0.591304 2.912531 6.352971 -2.238969 0.866680 -6.088435 1.319398 12.011586 2.982880 -3.051022 0.865039 1.891182 -1.136860 -2.020274 10.406309 2.799041 -4.586358 -1.498650 -2.555548 -8.082166 0.956740 -1.796682 -1.499141 8.244603 -0.790450 1.471397 4.654283 -1.892066 -2.336958 -4.239335 0.946729 0.624136 11.096740 3.553341 1.277149 8.905266 -0.750197 7.781676 5.216354 20.020391 2.387127 15.844034 51.766505 -17.816437 6.939271 0.318526 -23.763646 -6.813621 5.855940 -8.227233 0.000000 0.000000 0.000000 0.000000 0.000000 0.000000 0.000000 0.000000 0.000000 0.000000 0.000000 0.000000 0.000000 0.000000 0.000000 0.000000 0.000000 0.000000 0.000000 0.000000 0.000000 0.000000 0.000000 0.000000 0.000000 0.000000 0.000000 0.000000 0.000000 0.000000 0.000000 0.000000 0.000000 0.000000 0.000000 0.000000 0.000000 0.000000 0.000000 0.000000 0.000000 0.000000 3.489852 -11.034222 2.869777 28.836298 -55.789274 25.198368 4.111425 0.456767 29.468739 -7.086055 -6.413747 5.467104 0.000000 0.000000 0.000000 0.000000 0.000000 0.000000 0.000000 0.000000 0.000000 0.000000 0.000000 0.000000 0.000000 0.000000 0.000000 0.000000 0.000000 0.000000 0.000000 0.000000 0.000000 0.000000 0.000000 0.000000 0.000000 0.000000 0.000000 0.000000 0.000000 0.000000 0.000000 0.000000 0.000000 0.000000 0.000000 0.000000 0.000000 0.000000 0.000000 0.000000 0.000000 0.000000
